{"title":"The Twilight Saga Breaking Dawn Part 1 2011 TS XviD - MiSTERE","uid":6840008,"size":1519480320,"categoryP":"video","categoryS":"movies","magnet":"?xt=urn:btih:a4ec1b4b2e131ea1628281c365a9feb17c4569ea&amp;dn=The+Twilight+Saga+Breaking+Dawn+Part+1+2011+TS+XviD+-+MiSTERE&amp;tr=udp%3A%2F%2Ftracker.openbittorrent.com%3A80&amp;tr=udp%3A%2F%2Fopen.demonii.com%3A1337&amp;tr=udp%3A%2F%2Ftracker.coppersurfer.tk%3A6969&amp;tr=udp%3A%2F%2Fexodus.desync.com%3A6969","seeders":1,"leechers":0,"uploader":"HeroMaster","files":-1,"time":1322093636,"description":"The Twilight Saga Breaking Dawn Part 1 2011 TS READNFO XviD - MiSTERE\n\n &lt;a href=&quot;\nhttp://www.imdb.com/title/tt1324999/&quot; rel=&quot;nofollow&quot; target=&quot;_NEW&quot;&gt;\nhttp://www.imdb.com/title/tt1324999/&lt;/a&gt;\n\n\nVideo\nID : 0\nFormat : MPEG-4 Visual\nFormat profile : Advanced Simple@L5\nFormat settings, BVOP : 2\nFormat settings, QPel : No\nFormat settings, GMC : No warppoints\nFormat settings, Matrix : Default (H.263)\nMuxing mode : Packed bitstream\nCodec ID : XVID\nCodec ID/Hint : XviD\nDuration : 1h 46mn\nBit rate : 1 746 Kbps\nWidth : 720 pixels\nHeight : 304 pixels\nDisplay aspect ratio : 2.35:1\nFrame rate : 24.000 fps\nColor space : YUV\nChroma subsampling : 4:2:0\nBit depth : 8 bits\nScan type : Progressive\nCompression mode : Lossy\nBits/(Pixel*Frame) : 0.332\nStream size : 1.30 GiB (93%)\nWriting library : XviD 64\n\nAudio\nID : 1\nFormat : MPEG Audio\nFormat version : Version 1\nFormat profile : Layer 3\nMode : Joint stereo\nMode extension : MS Stereo\nCodec ID : 55\nCodec ID/Hint : MP3\nDuration : 1h 46mn\nBit rate mode : Constant\nBit rate : 128 Kbps\nChannel(s) : 2 channels\nSampling rate : 44.1 KHz\nCompression mode : Lossy\nStream size : 97.9 MiB (7%)\nAlignment : Split accross interleaves\nInterleave, duration : 42 ms (1.00 video frame)\n\n\nCropped Resized Sharpened and Tweaked RGB\n42 seconds OF CAM audio in 2 areas\nENGLISH subs hardcoded when needed\nafter credit scene included, after credits\n\n\nPoster:\n\n &lt;a href=&quot;\nhttp://i.imgur.com/zGCvq.jpg&quot; rel=&quot;nofollow&quot; target=&quot;_NEW&quot;&gt;\nhttp://i.imgur.com/zGCvq.jpg&lt;/a&gt;\n\n\nScreenshots:\n\n &lt;a href=&quot;\nhttp://i.imgur.com/TUzJ8.jpg&quot; rel=&quot;nofollow&quot; target=&quot;_NEW&quot;&gt;\nhttp://i.imgur.com/TUzJ8.jpg&lt;/a&gt;\n\n\nENJOY!","torrent":{"xt":"urn:btih:a4ec1b4b2e131ea1628281c365a9feb17c4569ea","amp;dn":"The+Twilight+Saga+Breaking+Dawn+Part+1+2011+TS+XviD+-+MiSTERE","amp;tr":["udp%3A%2F%2Ftracker.openbittorrent.com%3A80","udp%3A%2F%2Fopen.demonii.com%3A1337","udp%3A%2F%2Ftracker.coppersurfer.tk%3A6969","udp%3A%2F%2Fexodus.desync.com%3A6969"],"infoHash":"a4ec1b4b2e131ea1628281c365a9feb17c4569ea","infoHashBuffer":{"type":"Buffer","data":[164,236,27,75,46,19,30,161,98,130,129,195,101,169,254,177,124,69,105,234]},"announce":[],"urlList":[]}}